<?xml version="1.0" encoding="utf-8"?>
<!-- Generator: Adobe Illustrator 15.1.0, SVG Export Plug-In  -->
<!DOCTYPE svg PUBLIC "-//W3C//DTD SVG 1.1//EN" "http://www.w3.org/Graphics/SVG/1.1/DTD/svg11.dtd" [
	<!ENTITY ns_flows "http://ns.adobe.com/Flows/1.0/">
]>
<svg version="1.1"
	 xmlns="http://www.w3.org/2000/svg" xmlns:xlink="http://www.w3.org/1999/xlink" xmlns:a="http://ns.adobe.com/AdobeSVGViewerExtensions/3.0/"
	 x="0px" y="0px" width="64px" height="64px" viewBox="0 0 64 64" style="enable-background:new 0 0 64 64;" xml:space="preserve">
<style type="text/css">
<![CDATA[
	.st0{display:none;opacity:0.5;fill:#E42320;}
	.st1{fill:#666666;}
]]>
</style>
<defs>
</defs>
<path vector-effect="none"  class="st1" d="M36.98,56.8c-0.11-0.54-0.63-0.89-1.18-0.78l-10,2c-0.54,0.11-0.89,0.64-0.78,1.18C25.11,59.67,25.53,60,26,60
	c0.06,0,0.13-0.01,0.2-0.02l10-2C36.74,57.87,37.09,57.35,36.98,56.8z"/>
<path vector-effect="none"  class="st1" d="M35.8,52.02l-10,2c-0.54,0.11-0.89,0.64-0.78,1.18C25.11,55.67,25.53,56,26,56c0.06,0,0.13-0.01,0.2-0.02l10-2
	c0.54-0.11,0.89-0.64,0.78-1.18C36.87,52.26,36.35,51.91,35.8,52.02z"/>
<path vector-effect="none"  class="st1" d="M32,7V3c0-0.55-0.45-1-1-1s-1,0.45-1,1v4c0,0.55,0.45,1,1,1S32,7.55,32,7z"/>
<path vector-effect="none"  class="st1" d="M11,26H7c-0.55,0-1,0.45-1,1s0.45,1,1,1h4c0.55,0,1-0.45,1-1S11.55,26,11,26z"/>
<path vector-effect="none"  class="st1" d="M55,26h-4c-0.55,0-1,0.45-1,1s0.45,1,1,1h4c0.55,0,1-0.45,1-1S55.55,26,55,26z"/>
<path vector-effect="none"  class="st1" d="M48.71,9.29c-0.39-0.39-1.02-0.39-1.41,0l-3,3c-0.39,0.39-0.39,1.02,0,1.41C44.49,13.9,44.74,14,45,14
	s0.51-0.1,0.71-0.29l3-3C49.1,10.32,49.1,9.68,48.71,9.29z"/>
<path vector-effect="none"  class="st1" d="M47.29,44.71C47.49,44.9,47.74,45,48,45s0.51-0.1,0.71-0.29c0.39-0.39,0.39-1.02,0-1.41l-3-3
	c-0.39-0.39-1.02-0.39-1.41,0c-0.39,0.39-0.39,1.02,0,1.41L47.29,44.71z"/>
<path vector-effect="none"  class="st1" d="M16.29,13.71C16.49,13.9,16.74,14,17,14s0.51-0.1,0.71-0.29c0.39-0.39,0.39-1.02,0-1.41l-3-3
	c-0.39-0.39-1.02-0.39-1.41,0c-0.39,0.39-0.39,1.02,0,1.41L16.29,13.71z"/>
<path vector-effect="none"  class="st1" d="M13.29,44.71C13.49,44.9,13.74,45,14,45s0.51-0.1,0.71-0.29l3-3c0.39-0.39,0.39-1.02,0-1.41
	c-0.39-0.39-1.02-0.39-1.41,0l-3,3C12.9,43.68,12.9,44.32,13.29,44.71z"/>
<path vector-effect="none"  class="st1" d="M26.8,61.82c-0.54,0.11-0.89,0.64-0.78,1.18c0.09,0.48,0.51,0.8,0.98,0.8c0.06,0,0.13-0.01,0.2-0.02l8-1.6
	c0.54-0.11,0.89-0.64,0.78-1.18c-0.11-0.54-0.63-0.89-1.18-0.78L26.8,61.82z"/>
<path vector-effect="none"  class="st1" d="M39.13,48.99c0.86-6.53,4.61-11.32,4.63-11.34C46.77,34.1,48,31.02,48,27c0-10.01-6.99-17-17-17s-17,6.99-17,17
	c0,3.99,1.23,7.08,4.22,10.62c0.04,0.05,3.79,4.81,4.64,11.32C22.95,50,23.72,52,26,52h10C38.17,52,39.07,50.16,39.13,48.99z M28,34
	h-2c-1.1,0-2-0.9-2-2s0.9-2,2-2s2,0.9,2,2V34z M32,50h-2V36h2V50z M36,50h-2V36h2c2.21,0,4-1.79,4-4s-1.79-4-4-4s-4,1.79-4,4v2h-2
	v-2c0-2.21-1.79-4-4-4s-4,1.79-4,4s1.79,4,4,4h2v14h-2c-0.94,0-1.12-0.94-1.15-1.27c-0.93-7.1-4.9-12.14-5.09-12.37
	C17.5,33.68,16,31.06,16,27c0-8.83,6.17-15,15-15s15,6.17,15,15c0,4.09-1.5,6.69-3.78,9.38c-0.17,0.21-4.14,5.25-5.07,12.42
	C37.13,49,37.02,50,36,50z M34,34v-2c0-1.1,0.9-2,2-2s2,0.9,2,2s-0.9,2-2,2H34z"/>
<rect id="light_x5F_bulb_x5F_on_1_" class="st0" width="64" height="64"/>
</svg>
