<?xml version="1.0" encoding="utf-8"?>
<!-- Generator: Adobe Illustrator 15.1.0, SVG Export Plug-In  -->
<!DOCTYPE svg PUBLIC "-//W3C//DTD SVG 1.1//EN" "http://www.w3.org/Graphics/SVG/1.1/DTD/svg11.dtd" [
	<!ENTITY ns_flows "http://ns.adobe.com/Flows/1.0/">
]>
<svg version="1.1"
	 xmlns="http://www.w3.org/2000/svg" xmlns:xlink="http://www.w3.org/1999/xlink" xmlns:a="http://ns.adobe.com/AdobeSVGViewerExtensions/3.0/"
	 x="0px" y="0px" width="64px" height="64px" viewBox="0 0 64 64" style="enable-background:new 0 0 64 64;" xml:space="preserve">
<style type="text/css">
<![CDATA[
	.st0{display:none;opacity:0.5;fill:#E42320;}
	.st1{fill:#666666;}
]]>
</style>
<defs>
</defs>
<path vector-effect="none"  class="st1" d="M57.61,2.4c-4.61,0-14.57,3.14-21.32,9.89c-3.1,3.1-6.31,7.47-9.11,11.71H17c-0.23,0-0.46,0.08-0.64,0.23
	l-12,10c-0.32,0.27-0.44,0.71-0.3,1.11C4.2,35.74,4.58,36,5,36h14.95c-0.48,0.87-0.77,1.42-0.83,1.53
	c-0.21,0.39-0.13,0.86,0.18,1.17L21.59,41l-5.29,5.29c-0.39,0.39-0.39,1.02,0,1.41C16.49,47.9,16.74,48,17,48s0.51-0.1,0.71-0.29
	L23,42.41l2.29,2.29C25.49,44.9,25.74,45,26,45c0.16,0,0.32-0.04,0.47-0.12c0.12-0.06,0.67-0.35,1.53-0.83V59
	c0,0.42,0.26,0.8,0.66,0.94C28.77,59.98,28.89,60,29,60c0.29,0,0.57-0.13,0.77-0.36l10-12C39.92,47.46,40,47.23,40,47V36.82
	c4.24-2.8,8.61-6.01,11.71-9.11c3.6-3.6,6.7-8.76,8.49-14.14c1.3-3.91,2.12-8.66,0.51-10.27C60.11,2.69,59.09,2.4,57.61,2.4z
	 M7.76,34l9.6-8h8.52c-1.94,3.04-3.62,5.89-4.81,8H7.76z M38,46.64l-8,9.6V42.93c2.11-1.2,4.96-2.87,8-4.81V46.64z M58.3,12.93
	c-1.7,5.1-4.62,9.97-8.01,13.36c-6.93,6.93-20.94,14.74-24.11,16.47L24.41,41l9.29-9.29c0.39-0.39,0.39-1.02,0-1.41
	c-0.39-0.39-1.02-0.39-1.41,0L23,39.59l-1.77-1.77c1.73-3.17,9.55-17.19,16.47-24.11c6.07-6.07,15.46-9.31,19.9-9.31
	c1.36,0,1.68,0.3,1.68,0.31C59.74,5.15,59.91,8.11,58.3,12.93z"/>
<path vector-effect="none"  class="st1" d="M47,12c-2.76,0-5,2.24-5,5s2.24,5,5,5s5-2.24,5-5S49.76,12,47,12z M47,20c-1.65,0-3-1.35-3-3s1.35-3,3-3
	s3,1.35,3,3S48.65,20,47,20z"/>
<path vector-effect="none"  class="st1" d="M24,47c0-0.55-0.45-1-1-1s-1,0.45-1,1c0,8.4-13.34,11.84-17.75,12.75C5.16,55.34,8.59,42,17,42
	c0.55,0,1-0.45,1-1s-0.45-1-1-1C5.27,40,2.14,60,2.01,60.85c-0.05,0.31,0.06,0.63,0.28,0.86C2.48,61.9,2.74,62,3,62
	c0.05,0,0.1,0,0.15-0.01C4,61.86,24,58.73,24,47z"/>
<rect id="rocket_1_" class="st0" width="64" height="64"/>
</svg>
