<svg xmlns="http://www.w3.org/2000/svg" xmlns:xlink="http://www.w3.org/1999/xlink" width="500" zoomAndPan="magnify" viewBox="0 0 375 374.999991" height="500" preserveAspectRatio="xMidYMid meet" version="1.0"><defs><clipPath id="f2a7a63c6d"><path d="M 0 37.5 L 375 37.5 L 375 337.5 L 0 337.5 Z M 0 37.5 " clip-rule="nonzero"/></clipPath></defs><rect x="-37.5" width="450" fill="#ffffff" y="-37.499999" height="449.999989" fill-opacity="1"/><rect x="-37.5" width="450" fill="#2b2b2b" y="-37.499999" height="449.999989" fill-opacity="1"/><g clip-path="url(#f2a7a63c6d)"><path fill="#ffffff" d="M 221.726562 278.242188 C 234.351562 278.242188 245.988281 275.875 256.839844 271.140625 C 267.492188 266.40625 276.761719 260.09375 284.257812 251.808594 C 291.753906 243.523438 297.671875 234.054688 302.011719 223.203125 C 306.351562 212.355469 308.324219 200.714844 308.324219 188.289062 L 308.324219 187.5 C 308.324219 175.074219 306.15625 163.433594 302.011719 152.386719 C 297.671875 141.339844 291.753906 131.675781 283.863281 123.585938 C 275.972656 115.300781 266.703125 108.792969 256.050781 104.058594 C 245.398438 99.324219 233.5625 96.757812 220.9375 96.757812 C 207.917969 96.757812 196.277344 99.125 185.625 103.859375 C 174.972656 108.59375 165.898438 114.90625 158.402344 123.191406 C 150.90625 131.476562 144.988281 140.945312 140.648438 151.796875 C 136.308594 162.644531 134.335938 174.285156 134.335938 186.710938 L 134.335938 187.5 C 134.335938 199.925781 136.507812 211.566406 140.648438 222.613281 C 144.988281 233.660156 150.90625 243.324219 158.796875 251.414062 C 166.6875 259.699219 175.761719 266.207031 186.414062 270.941406 C 197.066406 275.875 208.902344 278.242188 221.726562 278.242188 Z M 55.429688 320.457031 L 104.15625 320.457031 C 108.101562 320.457031 111.257812 323.613281 111.257812 327.558594 C 111.257812 331.503906 108.101562 334.660156 104.15625 334.660156 L 55.429688 334.660156 C 51.484375 334.660156 48.328125 331.503906 48.328125 327.558594 C 48.328125 323.613281 51.484375 320.457031 55.429688 320.457031 Z M 39.058594 264.433594 L 66.871094 264.433594 C 70.816406 264.433594 73.972656 267.589844 73.972656 271.535156 C 73.972656 275.480469 70.816406 278.636719 66.871094 278.636719 L 39.058594 278.636719 C 35.113281 278.636719 31.957031 275.480469 31.957031 271.535156 C 31.957031 267.589844 35.113281 264.433594 39.058594 264.433594 Z M 31.167969 152.191406 L 48.132812 152.191406 C 52.078125 152.191406 55.234375 155.347656 55.234375 159.292969 C 55.234375 163.238281 52.078125 166.394531 48.132812 166.394531 L 31.167969 166.394531 C 27.222656 166.394531 24.066406 163.238281 24.066406 159.292969 C 24.261719 155.347656 27.417969 152.191406 31.167969 152.191406 Z M 7.101562 180.203125 L 39.648438 180.203125 C 43.59375 180.203125 46.75 183.359375 46.75 187.300781 C 46.75 191.246094 43.59375 194.402344 39.648438 194.402344 L 7.101562 194.402344 C 3.15625 194.402344 0 191.246094 0 187.300781 C 0 183.359375 3.15625 180.203125 7.101562 180.203125 Z M 126.445312 306.449219 L 110.664062 306.449219 C 106.71875 306.449219 103.5625 303.292969 103.5625 299.347656 C 103.5625 295.601562 106.523438 292.640625 110.074219 292.445312 L 116.386719 292.445312 C 120.332031 292.445312 123.488281 289.289062 123.488281 285.34375 C 123.488281 281.398438 120.332031 278.242188 116.386719 278.242188 L 86.992188 278.242188 C 83.046875 278.242188 79.890625 275.085938 79.890625 271.140625 C 79.890625 267.195312 83.046875 264.039062 86.992188 264.039062 L 105.929688 264.039062 C 109.875 264.039062 113.03125 260.882812 113.03125 256.9375 C 113.03125 252.992188 109.875 249.835938 105.929688 249.835938 L 76.734375 249.835938 C 72.789062 249.835938 69.632812 246.679688 69.632812 242.734375 C 69.632812 239.183594 72.199219 236.421875 75.550781 235.828125 L 131.378906 235.828125 C 135.324219 235.828125 138.480469 232.671875 138.480469 228.726562 C 138.480469 224.78125 135.324219 221.625 131.378906 221.625 L 60.558594 221.625 C 56.613281 221.625 53.457031 218.46875 53.457031 214.523438 C 53.457031 210.578125 56.613281 207.421875 60.558594 207.421875 L 84.429688 207.421875 C 88.375 207.421875 91.53125 204.265625 91.53125 200.320312 C 91.53125 196.375 88.375 193.21875 84.429688 193.21875 L 59.179688 193.21875 C 55.234375 193.21875 52.078125 190.066406 52.078125 186.121094 C 52.078125 182.175781 55.234375 179.019531 59.179688 179.019531 L 85.019531 179.019531 C 88.964844 179.019531 92.121094 175.863281 92.121094 171.917969 C 92.121094 167.972656 88.964844 164.816406 85.019531 164.816406 L 69.238281 164.816406 L 69.4375 164.027344 C 67.070312 162.84375 65.492188 160.476562 65.492188 157.714844 C 65.492188 153.964844 68.449219 151.007812 72 150.808594 L 113.425781 150.808594 C 117.371094 150.808594 120.527344 147.652344 120.527344 143.707031 C 120.527344 139.761719 117.371094 136.605469 113.425781 136.605469 L 91.332031 136.605469 C 87.386719 136.605469 84.230469 133.449219 84.230469 129.503906 C 84.230469 125.558594 87.386719 122.402344 91.332031 122.402344 L 103.957031 122.402344 C 107.902344 122.402344 111.058594 119.246094 111.058594 115.300781 C 111.058594 111.75 108.496094 108.988281 105.140625 108.398438 L 70.027344 108.398438 C 66.082031 108.398438 62.925781 105.242188 62.925781 101.296875 C 62.925781 97.351562 66.082031 94.195312 70.027344 94.195312 L 129.40625 94.195312 C 129.996094 94.195312 130.589844 94.195312 131.179688 94.390625 L 133.152344 94.390625 C 137.097656 94.390625 140.253906 91.234375 140.253906 87.289062 C 140.253906 83.738281 137.691406 80.976562 134.335938 80.386719 L 108.691406 80.386719 C 104.746094 80.386719 101.589844 77.230469 101.589844 73.285156 C 101.589844 69.339844 104.746094 66.183594 108.691406 66.183594 L 127.234375 66.183594 C 127.433594 66.183594 127.433594 66.183594 127.628906 66.183594 L 155.050781 66.183594 C 158.996094 66.183594 162.152344 63.027344 162.152344 59.082031 C 162.152344 55.53125 159.585938 52.769531 156.234375 52.175781 L 129.601562 52.175781 C 125.65625 52.175781 122.5 49.019531 122.5 45.074219 C 122.5 41.128906 125.65625 37.972656 129.601562 37.972656 C 160.769531 40.539062 191.742188 38.171875 221.726562 38.171875 C 244.015625 38.171875 264.53125 42.117188 283.273438 50.007812 C 302.011719 57.898438 318.1875 68.351562 331.800781 81.765625 C 345.410156 95.179688 356.0625 110.765625 363.558594 128.714844 C 371.054688 146.667969 375 166 375 186.710938 L 375 187.5 C 375 208.210938 371.054688 227.542969 363.363281 245.496094 C 355.667969 263.445312 345.015625 279.226562 331.40625 293.035156 C 317.792969 306.648438 301.617188 317.300781 282.679688 325.191406 C 263.742188 333.082031 243.226562 337.027344 220.9375 337.027344 C 190.753906 337.027344 159.585938 334.660156 128.417969 334.660156 C 124.472656 334.660156 121.316406 331.503906 121.316406 327.558594 C 121.316406 323.613281 124.472656 320.457031 128.417969 320.457031 L 149.921875 320.457031 C 153.867188 320.457031 157.023438 317.300781 157.023438 313.355469 C 157.023438 309.410156 153.867188 306.253906 149.921875 306.253906 L 126.445312 306.253906 Z M 101.789062 40.539062 L 112.242188 40.539062 C 116.1875 40.539062 119.34375 43.695312 119.34375 47.640625 C 119.34375 51.585938 116.1875 54.742188 112.242188 54.742188 L 101.789062 54.742188 C 97.84375 54.742188 94.6875 51.585938 94.6875 47.640625 C 94.882812 43.695312 98.039062 40.539062 101.789062 40.539062 Z M 43.792969 236.421875 L 52.867188 236.421875 C 56.8125 236.421875 59.96875 239.578125 59.96875 243.523438 C 59.96875 247.46875 56.8125 250.625 52.867188 250.625 L 43.792969 250.625 C 39.847656 250.625 36.691406 247.46875 36.691406 243.523438 C 36.691406 239.578125 39.847656 236.421875 43.792969 236.421875 Z M 43.792969 236.421875 " fill-opacity="1" fill-rule="evenodd"/></g></svg>