<?xml version="1.0" encoding="utf-8"?>
<!-- Generator: Adobe Illustrator 17.0.0, SVG Export Plug-In . SVG Version: 6.00 Build 0)  -->
<!DOCTYPE svg PUBLIC "-//W3C//DTD SVG 1.1//EN" "http://www.w3.org/Graphics/SVG/1.1/DTD/svg11.dtd">
<svg version="1.1" id="Layer_1" xmlns="http://www.w3.org/2000/svg" xmlns:xlink="http://www.w3.org/1999/xlink" x="0px" y="0px"
	 width="12.45px" height="21.15px" viewBox="0 0 12.45 21.15" enable-background="new 0 0 12.45 21.15" xml:space="preserve">
<g>
	<g>
		<path vector-effect="none"  fill-rule="evenodd" clip-rule="evenodd" fill="#686262" d="M9.068,5.618c1.104,0,2-0.896,2-2c0-1.105-0.895-2-2-2
			c-1.105,0-2,0.895-2,2C7.068,4.723,7.964,5.618,9.068,5.618z M3.068,8.618c-1.105,0-2,0.896-2,2c0,1.105,0.895,2,2,2s2-0.895,2-2
			C5.068,9.514,4.173,8.618,3.068,8.618z M9.068,15.618c-1.105,0-2,0.895-2,1.999c0,1.105,0.895,2,2,2c1.104,0,2-0.895,2-2
			C11.068,16.514,10.173,15.618,9.068,15.618z"/>
	</g>
</g>
</svg>
