<?xml version="1.0" encoding="utf-8"?>
<!-- Generator: Adobe Illustrator 17.0.0, SVG Export Plug-In . SVG Version: 6.00 Build 0)  -->
<!DOCTYPE svg PUBLIC "-//W3C//DTD SVG 1.1//EN" "http://www.w3.org/Graphics/SVG/1.1/DTD/svg11.dtd">
<svg version="1.1" id="Layer_1" xmlns="http://www.w3.org/2000/svg" xmlns:xlink="http://www.w3.org/1999/xlink" x="0px" y="0px"
	 width="46.491px" height="68.421px" viewBox="0 0 46.491 68.421" enable-background="new 0 0 46.491 68.421" xml:space="preserve">
<g>
	<path vector-effect="none"  fill="#4E5055" d="M30.604,26.347v11.44c-2.77,1.712-4.154,3.237-4.154,4.575c0,0.797,0.512,1.197,1.531,1.197
		c1.021,0,2.037-0.352,3.045-1.057v3.557c-1.125,0.586-2.457,0.879-3.994,0.879s-2.699-0.387-3.484-1.162
		c-0.787-0.773-1.18-1.76-1.18-2.957c0-1.994,1.066-3.789,3.203-5.385v-1.83c-0.752,1.525-2.23,2.288-4.436,2.288
		c-1.736,0-3.092-0.493-4.066-1.479c-0.973-0.985-1.459-2.276-1.459-3.872c0-1.596,0.627-2.869,1.883-3.819
		c1.254-0.951,3.115-1.426,5.578-1.426h2.254v-1.232c0-1.501-0.98-2.253-2.939-2.253s-3.762,0.54-5.404,1.619v-4.611
		c1.408-0.798,3.408-1.197,6.002-1.197s4.512,0.545,5.756,1.637S30.604,24.048,30.604,26.347z M25.325,30.466H23.67
		c-0.869,0-1.537,0.188-2.008,0.563c-0.469,0.375-0.703,0.857-0.703,1.443c0,1.196,0.691,1.795,2.076,1.795
		c0.729,0,1.291-0.223,1.689-0.669c0.4-0.445,0.6-1.055,0.6-1.83V30.466z"/>
</g>
</svg>
